<?xml version="1.0" encoding="UTF-8"?>
<svg version="1.1" viewBox="0 0 2048 411" width="597" height="120" xmlns="http://www.w3.org/2000/svg">
<path transform="translate(924,148)" d="m0 0 5 2v2l8-2v2l5-2 1 3 14-1 1 3 6-2 3 2 4-2 5 1v2l16-1 4 1 1-2h3l1 2 22-1 7 3 1-2h22l3 4 2 11-2 5-11 9-15 14-10 8-12 11-10 8-8 7-9 7-14 12-10 7-9-3-4-4-1-9 4-6 22-18 11-10-1-2-10 4-17 5-6 2-16 4-15 4-26 5-32 4-5 3-28 3h-6l-2-2-16 1-22 2h-7-3l-7 1v-2l-17 1h-7l-1-4-5 4-4-2-4 1h-9l-2-2-12 1v-2l-5 2-3-1v-2l-10 2-4-2v-2l-4 2h-9l-3-2h-12l-3-2v2h-2l-3-3-3 2-4-1-9-6-5-7-2-5v-10l4-9 8-7 5-3 4 1 10 1 1 1 10 2 13 2 4 1 10 1 7 1h3l3 2 7-1 3 2h10l9 1 5 2 4-2 5 1v2l18-1 9 2 13-1 4 2h3l2-2 11 1 16-1 6-1 1 2 21-1 60-6 7-1 3-3 14-1 17-3 2-2 12-1 3-1 3-3h5l3-1 4-1-1-1h-10l-10-2-5 1-10-2h-11l-2-2-8 1-6-3-4-4-1-2v-6l4-6zm60 56-1 2 4-2z" fill="currentColor"/>
<path transform="translate(1601,145)" d="m0 0h16l8 3 8 7 5 8 3 10 1 8v10l-2 15-4 14-8 16-9 11-9 8-14 7-7 2h-15l-7-3-7-6-1-4h-2l-2 17-6 34-2 2h-30l-1-2 6-28 20-99 5-25 1-2h26l1 12 10-8 12-6zm-9 25-10 4-6 5-4 7-5 22-3 14v9l7 6 10 2 10-4 6-5 6-10 4-11 2-9v-16l-4-10-5-4z" fill="currentColor"/>
<path transform="translate(1308,100)" d="m0 0h31l1 3-6 28-7 29 8-6 15-8 4-1h17l8 3 8 9 3 10v16l-6 32-9 45-2 2h-30l-1-2 10-48 5-25v-7l-4-6-2-1h-9l-12 6-7 8-5 22-10 51-2 2h-30l1-9 30-150z" fill="currentColor"/>
<path transform="translate(316,113)" d="m0 0h9l12 2 10 4 10 9 7 9-2 4-14 11-5 5-3-1-5-8-10-5h-9l-10 3-9 5-9 8-7 11-5 11-4 20v18l4 16 6 8 5 4 5 2 6 1h10l10-3 11-7 3-2 7 11 7 9-1 4-16 11-15 5-14 2h-9l-13-2-13-5-10-8-8-9-7-14-3-11-1-6v-21l2-16 7-21 8-15 10-13 12-11 15-9 12-4z" fill="currentColor"/>
<path transform="translate(1218,109)" d="m0 0h18l13 4 12 7 11 10-1 4-17 17-4-3v-2l-4-2-8-5-6-2h-12l-7 4-4 6-1 6 3 6 8 7 22 14 10 8 6 7 4 10 1 6v10l-3 12-5 10-6 7-13 9-12 4-18 2-14-1-14-5-11-6-10-10-3-4 1-5 12-9 5-4 1-2 4 1 5 7 10 6 9 3 11 1 11-4 5-6 1-3v-7l-4-6-15-10-17-11-10-10-6-12-1-6v-12l4-13 7-11 8-7 16-8z" fill="currentColor"/>
<path transform="translate(1463,145)" d="m0 0h15l8 2 10 5 6 5 7 11 5 16v15l-3 15-4 11-6 11-8 10-10 8-11 6-11 4-14 1-11-2-14-7-8-8-6-12-2-7-1-13 3-20 5-14 9-14 12-12 16-8zm1 25-9 3-7 7-8 16-3 15v9l2 10 5 7 4 2h11l7-4 8-9 4-8 4-16v-15l-3-9-5-6z" fill="currentColor"/>
<path transform="translate(1801,148)" d="m0 0h31l1 1 6 61v23l2-1 12-27 16-34 10-22 1-1h30l-2 6-17 32-12 23-9 16-8 16-12 22-8 13-10 13-8 8-9 5-7 2h-27l-2-1 2-9 6-14 5 1h7l10-5 7-8 3-6v-10l-18-101z" fill="currentColor"/>
<path transform="translate(449,115)" d="m0 0h34l-1 11-17 85-5 21-7 19-7 11-9 9-12 6-16 3h-12l-12-2-13-7-10-9-3-4 1-4 16-16 2-3 3 1 4 6 7 6 7 2h7l9-3 6-7 6-16 8-38 13-67z" fill="currentColor"/>
<path transform="translate(1778,98)" d="m0 0h19l14 4 1 3-9 20h-4l-5-2h-7l-5 3-4 6-4 16h19l-1 10-3 13-1 1h-20l-1 9-16 80-1 1h-30l-1-4 11-53 6-30 1-3h-14l1-10 3-13 1-1h13l4-15 5-13 8-11 8-6 8-4z" fill="currentColor"/>
<path transform="translate(1676,148)" d="m0 0h30l1 3-22 109-1 2h-30l-1-5 13-63 9-45z" fill="#currentColor"/>
<path transform="translate(1694,97)" d="m0 0h12l6 4 4 5 1 9-4 8-6 6-6 2-10-1-6-4-4-5-1-8 3-8 5-5z" fill="currentColor"/>
</svg>
